<svg width="16" height="16" viewBox="0 0 16 16" fill="none" xmlns="http://www.w3.org/2000/svg">
<path d="M5.40625 12.4375C5.40625 12.375 5.34375 12.3125 5.25 12.3125C5.15625 12.3125 5.09375 12.375 5.09375 12.4375C5.09375 12.5 5.15625 12.5625 5.25 12.5312C5.34375 12.5312 5.40625 12.5 5.40625 12.4375ZM4.4375 12.2812C4.4375 12.3438 4.5 12.4375 4.59375 12.4375C4.65625 12.4688 4.75 12.4375 4.78125 12.375C4.78125 12.3125 4.75 12.25 4.65625 12.2188C4.5625 12.1875 4.46875 12.2188 4.4375 12.2812ZM5.84375 12.25C5.75 12.25 5.6875 12.3125 5.6875 12.4062C5.6875 12.4688 5.78125 12.5 5.875 12.4688C5.96875 12.4375 6.03125 12.4062 6 12.3438C6 12.2812 5.90625 12.2188 5.84375 12.25ZM7.875 0.25C3.5625 0.25 0.25 3.5625 0.25 7.875C0.25 11.3438 2.40625 14.3125 5.53125 15.375C5.9375 15.4375 6.0625 15.1875 6.0625 15C6.0625 14.7812 6.0625 13.7188 6.0625 13.0625C6.0625 13.0625 3.875 13.5312 3.40625 12.125C3.40625 12.125 3.0625 11.2188 2.5625 11C2.5625 11 1.84375 10.5 2.59375 10.5C2.59375 10.5 3.375 10.5625 3.8125 11.3125C4.5 12.5312 5.625 12.1875 6.09375 11.9688C6.15625 11.4688 6.34375 11.125 6.59375 10.9062C4.84375 10.7188 3.0625 10.4688 3.0625 7.46875C3.0625 6.59375 3.3125 6.1875 3.8125 5.625C3.71875 5.40625 3.46875 4.59375 3.90625 3.5C4.53125 3.3125 6.0625 4.34375 6.0625 4.34375C6.6875 4.15625 7.34375 4.09375 8 4.09375C8.6875 4.09375 9.34375 4.15625 9.96875 4.34375C9.96875 4.34375 11.4688 3.28125 12.125 3.5C12.5625 4.59375 12.2812 5.40625 12.2188 5.625C12.7188 6.1875 13.0312 6.59375 13.0312 7.46875C13.0312 10.4688 11.1875 10.7188 9.4375 10.9062C9.71875 11.1562 9.96875 11.625 9.96875 12.375C9.96875 13.4062 9.9375 14.7188 9.9375 14.9688C9.9375 15.1875 10.0938 15.4375 10.5 15.3438C13.625 14.3125 15.75 11.3438 15.75 7.875C15.75 3.5625 12.2188 0.25 7.875 0.25ZM3.28125 11.0312C3.21875 11.0625 3.25 11.1562 3.28125 11.2188C3.34375 11.25 3.40625 11.2812 3.46875 11.25C3.5 11.2188 3.5 11.125 3.4375 11.0625C3.375 11.0312 3.3125 11 3.28125 11.0312ZM2.9375 10.7812C2.90625 10.8438 2.9375 10.875 3 10.9062C3.0625 10.9375 3.125 10.9375 3.15625 10.875C3.15625 10.8438 3.125 10.8125 3.0625 10.7812C3 10.75 2.96875 10.75 2.9375 10.7812ZM3.9375 11.9062C3.90625 11.9375 3.90625 12.0312 4 12.0938C4.0625 12.1562 4.15625 12.1875 4.1875 12.125C4.21875 12.0938 4.21875 12 4.15625 11.9375C4.09375 11.875 4 11.8438 3.9375 11.9062ZM3.59375 11.4375C3.53125 11.4688 3.53125 11.5625 3.59375 11.625C3.65625 11.6875 3.71875 11.7188 3.78125 11.6875C3.8125 11.6562 3.8125 11.5625 3.78125 11.5C3.71875 11.4375 3.65625 11.4062 3.59375 11.4375Z" fill="white"/>
</svg>
