<svg width="21" height="20" viewBox="0 0 21 20" fill="none" xmlns="http://www.w3.org/2000/svg">
<path d="M20.7548 12.4481V19.8691H16.4523V12.9455C16.4523 11.207 15.8311 10.0198 14.2733 10.0198C13.0845 10.0198 12.3783 10.8191 12.0664 11.593C11.9531 11.8696 11.9239 12.2537 11.9239 12.6416V19.8688H7.62107C7.62107 19.8688 7.67883 8.14241 7.62107 6.92857H11.9242V8.76233C11.9156 8.77677 11.9034 8.79089 11.8957 8.80468H11.9242V8.76233C12.496 7.88251 13.5157 6.62471 15.8019 6.62471C18.6326 6.62471 20.7548 8.47419 20.7548 12.4481ZM3.11995 0.690918C1.64813 0.690918 0.685211 1.65705 0.685211 2.9264C0.685211 4.1688 1.62022 5.16284 3.06348 5.16284H3.09139C4.59209 5.16284 5.52517 4.1688 5.52517 2.9264C5.49661 1.65705 4.59209 0.690918 3.11995 0.690918ZM0.940942 19.8691H5.24217V6.92857H0.940942V19.8691Z" fill="#F1F2F2"/>
</svg>
