<svg width="28" height="24" viewBox="0 0 28 24" fill="none" xmlns="http://www.w3.org/2000/svg">
<path d="M27.7125 4.71262L23.9375 8.47512C23.1875 17.2126 15.8125 24.0001 7.00003 24.0001C5.18753 24.0001 3.68753 23.7126 2.55003 23.1501C1.63753 22.6876 1.26253 22.2001 1.16253 22.0501C1.07979 21.9244 1.02648 21.7817 1.00656 21.6326C0.986639 21.4835 1.00063 21.3318 1.04749 21.1888C1.09434 21.0458 1.17286 20.9152 1.27719 20.8068C1.38151 20.6984 1.50896 20.6149 1.65003 20.5626C1.67503 20.5501 4.62503 19.4251 6.53753 17.2626C5.35145 16.4181 4.30897 15.3883 3.45003 14.2126C1.73753 11.8876 -0.0749723 7.85012 1.01253 1.82512C1.04671 1.646 1.12864 1.47944 1.24965 1.34303C1.37066 1.20662 1.52626 1.10542 1.70003 1.05012C1.87434 0.993039 2.061 0.985004 2.23958 1.02689C2.41816 1.06878 2.58177 1.15898 2.71253 1.28762C2.75003 1.33762 6.91253 5.43762 12 6.76262V6.00012C12.0049 5.20726 12.166 4.42313 12.4739 3.6925C12.7819 2.96188 13.2307 2.29906 13.7949 1.74191C14.359 1.18475 15.0273 0.74417 15.7617 0.445312C16.4961 0.146455 17.2822 -0.0048227 18.075 0.000117191C19.1156 0.0149587 20.1347 0.299095 21.0328 0.824842C21.931 1.35059 22.6776 2.10002 23.2 3.00012H27C27.1975 2.9995 27.3906 3.05733 27.5553 3.16633C27.7199 3.27533 27.8485 3.43062 27.925 3.61262C27.9971 3.79733 28.0154 3.99866 27.9777 4.19333C27.9401 4.38799 27.8482 4.56803 27.7125 4.71262Z" fill="#A8A8A8"/>
</svg>
