<svg width="26" height="26" viewBox="0 0 26 26" fill="none" xmlns="http://www.w3.org/2000/svg">
<path d="M23.6125 12.2875L19.825 16.075C19.175 16.7251 18.4033 17.2408 17.554 17.5926C16.7046 17.9444 15.7943 18.1255 14.875 18.1255C13.9557 18.1255 13.0454 17.9444 12.1961 17.5926C11.3467 17.2408 10.575 16.7251 9.92502 16.075C9.76476 15.9416 9.63408 15.7763 9.54131 15.5896C9.44853 15.4028 9.39571 15.1988 9.3862 14.9905C9.3767 14.7822 9.41072 14.5743 9.48609 14.3799C9.56147 14.1855 9.67655 14.0089 9.82398 13.8615C9.97142 13.714 10.148 13.599 10.3424 13.5236C10.5368 13.4482 10.7448 13.4142 10.953 13.4237C11.1613 13.4332 11.3653 13.486 11.5521 13.5788C11.7388 13.6716 11.9041 13.8023 12.0375 13.9625C12.7911 14.7083 13.8085 15.1266 14.8688 15.1266C15.929 15.1266 16.9464 14.7083 17.7 13.9625L21.4875 10.175C22.2384 9.42412 22.6603 8.40569 22.6603 7.34377C22.6603 6.28184 22.2384 5.26341 21.4875 4.51252C20.7366 3.76162 19.7182 3.33977 18.6563 3.33977C17.5943 3.33977 16.5759 3.76162 15.825 4.51252L14.625 5.72502C14.3432 6.00681 13.961 6.16512 13.5625 6.16512C13.164 6.16512 12.7818 6.00681 12.5 5.72502C12.2182 5.44322 12.0599 5.06103 12.0599 4.66252C12.0599 4.264 12.2182 3.88181 12.5 3.60002L13.7125 2.38752C15.0253 1.07469 16.8059 0.337158 18.6625 0.337158C20.5191 0.337158 22.2997 1.07469 23.6125 2.38752C24.9253 3.70034 25.6629 5.4809 25.6629 7.33751C25.6629 9.19413 24.9253 10.9747 23.6125 12.2875ZM11.375 20.275L10.175 21.4875C9.42412 22.2384 8.40569 22.6603 7.34377 22.6603C6.28184 22.6603 5.26341 22.2384 4.51252 21.4875C3.76162 20.7366 3.33977 19.7182 3.33977 18.6563C3.33977 17.5943 3.76162 16.5759 4.51252 15.825L8.30002 12.0375C9.05361 11.2917 10.071 10.8734 11.1313 10.8734C12.1915 10.8734 13.2089 11.2917 13.9625 12.0375C14.2501 12.2769 14.6168 12.4001 14.9905 12.3831C15.3643 12.366 15.7182 12.2099 15.9828 11.9453C16.2474 11.6807 16.4035 11.3268 16.4206 10.953C16.4376 10.5793 16.3144 10.2126 16.075 9.92502C15.4258 9.27344 14.6544 8.75644 13.805 8.40367C12.9555 8.05091 12.0448 7.86932 11.125 7.86932C10.2052 7.86932 9.29451 8.05091 8.44507 8.40367C7.59563 8.75644 6.8242 9.27344 6.17502 9.92502L2.38752 13.7125C1.07469 15.0253 0.337158 16.8059 0.337158 18.6625C0.337158 20.5191 1.07469 22.2997 2.38752 23.6125C3.70034 24.9253 5.4809 25.6629 7.33751 25.6629C9.19413 25.6629 10.9747 24.9253 12.2875 23.6125L13.5 22.4C13.7818 22.1182 13.9401 21.736 13.9401 21.3375C13.9401 20.939 13.7818 20.5568 13.5 20.275C13.2182 19.9932 12.836 19.8349 12.4375 19.8349C12.039 19.8349 11.6568 19.9932 11.375 20.275Z" fill="#A8A8A8"/>
</svg>
