<?xml version="1.0" encoding="utf-8"?>
<!-- Uploaded to: SVG Repo, www.svgrepo.com, Generator: SVG Repo Mixer Tools -->
<svg width="800px" height="800px" viewBox="0 0 1024 1024" class="icon"  version="1.1" xmlns="http://www.w3.org/2000/svg"><path d="M591.2 396.8L776 81.6C735.2 60.8 692 44 647.2 32L432.8 396.8h158.4z" fill="#AF5655" /><path d="M591.2 396.8L776 81.6C735.2 60.8 692 44 647.2 32L432.8 396.8h158.4z" fill="#CCBECC" /><path d="M591.2 404.8H432.8c-3.2 0-5.6-1.6-7.2-4-1.6-2.4-1.6-5.6 0-8L640 28c1.6-3.2 5.6-4.8 8.8-4 44.8 12 88.8 28.8 130.4 50.4 1.6 0.8 3.2 2.4 4 4.8 0.8 2.4 0 4-0.8 6.4l-184 315.2c-1.6 2.4-4 4-7.2 4z m-144-16h140l178.4-303.2C728 66.4 689.6 52 651.2 41.6L447.2 388.8z" fill="#6A576D" /><path d="M363.2 992h296.8c54.4 0 99.2-44 99.2-99.2V431.2c0-54.4-44-99.2-99.2-99.2H363.2C308.8 332 264 376 264 431.2v461.6c0.8 55.2 44.8 99.2 99.2 99.2z m49.6-620h197.6c13.6 0 24.8 11.2 24.8 24.8 0 13.6-11.2 24.8-24.8 24.8H412.8c-13.6 0-24.8-11.2-24.8-24.8 0-13.6 11.2-24.8 24.8-24.8z" fill="#FFFFFF" /><path d="M660.8 1000H363.2C304 1000 256 952 256 892.8V431.2c0-59.2 48-107.2 107.2-107.2h296.8c59.2 0 107.2 48 107.2 107.2v461.6c0 59.2-48 107.2-106.4 107.2zM363.2 340c-50.4 0-91.2 40.8-91.2 91.2v461.6c0 50.4 40.8 91.2 91.2 91.2h296.8c50.4 0 91.2-40.8 91.2-91.2V431.2c0-50.4-40.8-91.2-91.2-91.2H363.2z m248 89.6H412.8c-18.4 0-32.8-14.4-32.8-32.8s14.4-32.8 32.8-32.8h197.6c18.4 0 32.8 14.4 32.8 32.8 0.8 17.6-14.4 32.8-32 32.8z m-198.4-49.6c-9.6 0-16.8 7.2-16.8 16.8 0 9.6 7.2 16.8 16.8 16.8h197.6c9.6 0 16.8-7.2 16.8-16.8 0-9.6-7.2-16.8-16.8-16.8H412.8z" fill="#6A576D" /><path d="M591.2 396.8L376.8 32c-44.8 12-88 28.8-128.8 49.6l184.8 314.4h158.4z" fill="#CCBECC" /><path d="M591.2 404.8H432.8c-3.2 0-5.6-1.6-7.2-4L240.8 85.6c-0.8-1.6-0.8-4-0.8-6.4 0.8-2.4 2.4-4 4-4.8C286.4 52.8 329.6 36 374.4 24c3.2-0.8 7.2 0.8 8.8 4l214.4 364.8c1.6 2.4 1.6 5.6 0 8-0.8 2.4-3.2 4-6.4 4z m-153.6-16h140L372.8 41.6c-39.2 10.4-76.8 25.6-113.6 44l178.4 303.2z" fill="#6A576D" /><path d="M512 620.8m-148.8 0a148.8 148.8 0 1 0 297.6 0 148.8 148.8 0 1 0-297.6 0Z" fill="#F1ED7B" /><path d="M512 777.6c-86.4 0-156.8-70.4-156.8-156.8S425.6 464.8 512 464.8s156.8 70.4 156.8 156.8S598.4 777.6 512 777.6z m0-296.8c-77.6 0-140.8 63.2-140.8 140.8S434.4 761.6 512 761.6s140.8-63.2 140.8-140.8S589.6 480.8 512 480.8z" fill="#6A576D" /><path d="M512 517.6c-37.6 0-68.8 29.6-68.8 65.6 0 36 30.4 104 68.8 104s68.8-67.2 68.8-104c0-36-31.2-65.6-68.8-65.6z" fill="#6A576D" /><path d="M569.6 682.4c-15.2 18.4-35.2 32-57.6 32-23.2 0-42.4-12.8-57.6-32-25.6 7.2-45.6 19.2-55.2 35.2 27.2 32 68 52 112.8 52 45.6 0 85.6-20 112.8-52-9.6-16-29.6-28-55.2-35.2zM660 843.2H363.2c-4.8 0-8-3.2-8-8s3.2-8 8-8h296.8c4.8 0 8 3.2 8 8s-3.2 8-8 8zM660 922.4H363.2c-4.8 0-8-3.2-8-8s3.2-8 8-8h296.8c4.8 0 8 3.2 8 8s-3.2 8-8 8z" fill="#6A576D" /></svg>