<?xml version="1.0" encoding="iso-8859-1"?>
<!-- Uploaded to: SVG Repo, www.svgrepo.com, Generator: SVG Repo Mixer Tools -->
<svg version="1.1" id="Layer_1" xmlns="http://www.w3.org/2000/svg" xmlns:xlink="http://www.w3.org/1999/xlink" 
	 viewBox="0 0 504.986 504.986" xml:space="preserve">
<path style="fill:#FFFFFF;" d="M462.904,405.392c7.715,0,14.027-6.312,14.027-14.027V113.622c0-7.715-6.312-14.027-14.027-14.027
	H42.082c-7.715,0-14.027,6.312-14.027,14.027v277.742c0,7.715,6.312,14.027,14.027,14.027H462.904z"/>
<rect x="56.11" y="127.649" style="fill:#FFC10D;" width="392.767" height="249.688"/>
<rect x="356.997" y="164.121" style="fill:#56ACE0;" width="43.485" height="43.485"/>
<g>
	<path style="fill:#194F82;" d="M462.904,71.54H42.082C18.937,71.54,0,90.477,0,113.622v277.742
		c0,23.145,18.937,42.082,42.082,42.082h420.822c23.145,0,42.082-18.937,42.082-42.082V113.622
		C504.986,90.477,486.049,71.54,462.904,71.54z M476.932,391.364c0,7.715-6.312,14.027-14.027,14.027H42.082
		c-7.715,0-14.027-6.312-14.027-14.027V113.622c0-7.715,6.312-14.027,14.027-14.027h420.822c7.715,0,14.027,6.312,14.027,14.027
		V391.364z"/>
	<path style="fill:#194F82;" d="M112.219,338.762H82.762c-7.715,0-14.027,6.312-14.027,14.027s6.312,14.027,14.027,14.027h29.458
		c7.715,0,14.027-6.312,14.027-14.027S119.934,338.762,112.219,338.762z"/>
	<path style="fill:#194F82;" d="M215.321,338.762h-29.458c-7.715,0-14.027,6.312-14.027,14.027s6.312,14.027,14.027,14.027h29.458
		c7.715,0,14.027-6.312,14.027-14.027S223.036,338.762,215.321,338.762z"/>
	<path style="fill:#194F82;" d="M318.422,338.762h-29.458c-7.715,0-14.027,6.312-14.027,14.027s6.312,14.027,14.027,14.027h29.458
		c7.715,0,14.027-6.312,14.027-14.027S326.137,338.762,318.422,338.762z"/>
	<path style="fill:#194F82;" d="M422.225,338.762h-29.458c-7.715,0-14.027,6.312-14.027,14.027s6.312,14.027,14.027,14.027h29.458
		c7.715,0,14.027-6.312,14.027-14.027S429.94,338.762,422.225,338.762z"/>
	<path style="fill:#194F82;" d="M82.762,251.09h64.526c7.715,0,14.027-6.312,14.027-14.027s-6.312-14.027-14.027-14.027H82.762
		c-7.715,0-14.027,6.312-14.027,14.027C68.734,244.778,75.047,251.09,82.762,251.09z"/>
	<path style="fill:#194F82;" d="M82.762,309.304h120.636c7.715,0,14.027-6.312,14.027-14.027s-6.312-14.027-14.027-14.027H82.762
		c-7.715,0-14.027,6.312-14.027,14.027S75.047,309.304,82.762,309.304z"/>
	<path style="fill:#194F82;" d="M428.537,222.334v-72.241c0-7.715-6.312-14.027-14.027-14.027h-71.54
		c-7.715,0-14.027,6.312-14.027,14.027v71.54c0,7.715,6.312,14.027,14.027,14.027h71.54
		C422.225,236.362,428.537,230.049,428.537,222.334z M400.482,208.307h-43.485v-43.485h43.485V208.307z"/>
</g>
</svg>