<?xml version="1.0" encoding="iso-8859-1"?>
<!-- Uploaded to: SVG Repo, www.svgrepo.com, Generator: SVG Repo Mixer Tools -->
<svg height="800px" width="800px" version="1.1" id="Layer_1" xmlns="http://www.w3.org/2000/svg" xmlns:xlink="http://www.w3.org/1999/xlink" 
	 viewBox="0 0 512 512" xml:space="preserve">
<path style="fill:#F8E99B;" d="M490.064,256c0-33.603,19.799-70.917,7.683-100.138c-12.561-30.292-53.411-42.542-76.239-65.37
	s-35.079-63.678-65.37-76.239C326.917,2.137,289.603,21.936,256,21.936s-70.917-19.799-100.138-7.683
	c-30.292,12.561-42.542,53.411-65.37,76.239s-63.678,35.079-76.237,65.37C2.138,185.083,21.937,222.397,21.937,256
	s-19.799,70.917-7.683,100.138c12.561,30.292,53.411,42.542,76.239,65.37c22.828,22.828,35.079,63.678,65.37,76.239
	c29.221,12.116,66.535-7.683,100.138-7.683s70.917,19.799,100.138,7.683c30.292-12.561,42.542-53.411,65.37-76.239
	c22.828-22.828,63.678-35.079,76.239-65.37C509.863,326.917,490.064,289.604,490.064,256z"/>
<path style="fill:#F6E27D;" d="M490.064,256c0-33.603,19.799-70.917,7.683-100.138c-12.561-30.292-53.411-42.542-76.239-65.37
	s-35.079-63.678-65.37-76.239c-12.436-5.156-26.339-4.526-40.797-2.108c2.162,0.558,4.292,1.243,6.376,2.108
	c30.292,12.561,42.542,53.411,65.37,76.239c22.828,22.828,63.678,35.079,76.239,65.37c12.118,29.221-7.683,66.535-7.683,100.138
	s19.799,70.917,7.683,100.138c-12.561,30.291-53.411,42.542-76.239,65.37c-22.828,22.828-35.079,63.678-65.37,76.239
	c-2.085,0.865-4.213,1.549-6.376,2.108c14.458,2.418,28.362,3.048,40.797-2.108c30.291-12.561,42.542-53.411,65.37-76.239
	c22.828-22.828,63.678-35.079,76.239-65.37C509.863,326.917,490.064,289.604,490.064,256z"/>
<circle style="fill:#F8F8F9;" cx="255.997" cy="255.997" r="178.99"/>
<path style="fill:#EDEDED;" d="M256,77.01c-6.986,0-13.874,0.414-20.653,1.194C324.471,88.445,393.685,164.134,393.685,256
	c0,91.867-69.214,167.555-158.337,177.796c6.778,0.779,13.667,1.194,20.653,1.194c98.854,0,178.99-80.137,178.99-178.99
	S354.853,77.01,256,77.01z"/>
<polygon style="fill:#F8E99B;" points="256,151.36 288.371,214.34 358.272,225.665 308.378,275.914 319.207,345.893 256,313.97 
	192.792,345.893 203.621,275.914 153.728,225.665 223.628,214.34 "/>
<polygon style="fill:#F6E27D;" points="358.272,225.665 288.371,214.34 256,151.36 240.462,181.588 260.834,221.224 330.735,232.55 
	280.841,282.798 288.18,330.222 319.207,345.893 308.378,275.914 "/>
<g>
	<path style="fill:#2E2D31;" d="M256,445.317C151.61,445.317,66.683,360.39,66.683,256S151.61,66.684,256,66.684
		c36.279,0,71.531,10.295,101.949,29.769c4.802,3.075,6.204,9.462,3.13,14.264c-3.076,4.805-9.463,6.203-14.264,3.128
		c-27.087-17.343-58.49-26.51-90.813-26.51c-93.002,0-168.664,75.662-168.664,168.664s75.662,168.664,168.664,168.664
		s168.664-75.662,168.664-168.664c0-38.02-12.346-73.911-35.704-103.788c-3.512-4.493-2.718-10.983,1.775-14.495
		c4.494-3.512,10.982-2.718,14.495,1.776c26.225,33.544,40.087,73.832,40.087,116.507C445.316,360.39,360.39,445.317,256,445.317z"
		/>
	<path style="fill:#2E2D31;" d="M177.55,512c-8.768,0-17.374-1.286-25.644-4.714c-21.812-9.045-34.694-29.357-47.152-49.002
		c-2.979-4.696-5.792-9.133-8.733-13.437c-3.218-4.707-2.009-11.133,2.7-14.352c4.709-3.218,11.133-2.009,14.352,2.7
		c3.141,4.596,6.182,9.392,9.123,14.029c11.232,17.712,21.841,34.442,37.621,40.985c14.936,6.194,33.93,2.046,54.043-2.346
		c13.786-3.011,28.041-6.124,42.141-6.124s28.355,3.113,42.141,6.123c20.11,4.391,39.104,8.541,54.041,2.346
		c15.78-6.543,26.389-23.273,37.621-40.985c7.341-11.577,14.932-23.547,24.403-33.017c9.47-9.47,21.44-17.062,33.015-24.402
		c17.712-11.232,34.442-21.842,40.985-37.621c6.194-14.936,2.046-33.931-2.346-54.043c-3.011-13.786-6.124-28.041-6.124-42.141
		s3.113-28.355,6.123-42.141c4.392-20.11,8.541-39.105,2.346-54.041c-6.543-15.78-23.273-26.389-40.985-37.621
		c-11.577-7.341-23.547-14.932-33.017-24.403c-9.47-9.47-17.062-21.44-24.402-33.015c-11.232-17.712-21.842-34.442-37.621-40.985
		c-14.935-6.194-33.93-2.046-54.043,2.346c-13.786,3.011-28.041,6.124-42.141,6.124s-28.355-3.113-42.141-6.123
		c-20.11-4.391-39.104-8.541-54.041-2.346c-15.779,6.543-26.389,23.273-37.621,40.985c-7.341,11.577-14.932,23.547-24.403,33.017
		s-21.439,17.061-33.015,24.401c-17.712,11.232-34.442,21.842-40.985,37.621c-6.193,14.936-2.046,33.931,2.346,54.043
		c3.011,13.786,6.124,28.041,6.124,42.141c0,14.1-3.113,28.355-6.123,42.141c-4.392,20.11-8.541,39.105-2.346,54.041
		c6.543,15.78,23.273,26.389,40.985,37.621l4.02,2.554c4.808,3.068,6.219,9.452,3.152,14.26s-9.453,6.218-14.26,3.152l-3.972-2.524
		c-19.645-12.458-39.956-25.339-49.002-47.152c-8.676-20.921-3.632-44.021,1.246-66.359C8.739,281.02,11.61,267.871,11.61,256
		c0-11.871-2.872-25.02-5.648-37.735c-4.878-22.339-9.923-45.437-1.246-66.359c9.045-21.812,29.357-34.694,49.001-47.152
		c11.117-7.049,21.618-13.709,29.473-21.564c7.855-7.856,14.516-18.358,21.566-29.474c12.458-19.645,25.339-39.957,47.153-49.002
		c20.92-8.674,44.019-3.632,66.357,1.247C230.98,8.739,244.129,11.61,256,11.61s25.02-2.871,37.735-5.648
		c22.338-4.878,45.436-9.924,66.359-1.246c21.812,9.045,34.694,29.357,47.152,49.001c7.049,11.117,13.709,21.618,21.564,29.473
		c7.856,7.856,18.358,14.515,29.474,21.566c19.643,12.458,39.956,25.34,49.002,47.153c8.676,20.921,3.631,44.019-1.247,66.357
		c-2.777,12.715-5.648,25.864-5.648,37.735c0,11.871,2.871,25.02,5.648,37.735c4.878,22.339,9.923,45.437,1.246,66.359
		c-9.045,21.812-29.357,34.694-49.001,47.152c-11.117,7.049-21.618,13.709-29.473,21.564c-7.856,7.856-14.516,18.358-21.566,29.474
		c-12.458,19.643-25.339,39.956-47.153,49.002c-20.92,8.673-44.021,3.631-66.357-1.247c-12.715-2.777-25.864-5.648-37.735-5.648
		c-11.871,0-25.02,2.871-37.735,5.648C204.755,508.989,190.966,512,177.55,512z"/>
	<path style="fill:#2E2D31;" d="M319.206,356.22c-1.589,0-3.183-0.366-4.654-1.108L256,325.538l-58.552,29.573
		c-3.457,1.743-7.596,1.41-10.726-0.863c-3.131-2.275-4.728-6.109-4.135-9.933l10.032-64.825l-46.218-46.548
		c-2.726-2.745-3.689-6.786-2.493-10.467c1.196-3.68,4.349-6.383,8.169-7.001l64.752-10.492l29.988-58.341
		c1.769-3.441,5.315-5.605,9.184-5.605s7.416,2.164,9.184,5.605l29.988,58.341l64.752,10.492c3.819,0.618,6.972,3.322,8.169,7.001
		c1.196,3.68,0.234,7.721-2.493,10.467l-46.218,46.548l10.032,64.825c0.592,3.825-1.004,7.659-4.135,9.933
		C323.479,355.553,321.349,356.22,319.206,356.22z M256,303.643c1.596,0,3.192,0.37,4.655,1.108l45.275,22.867l-7.757-50.125
		c-0.501-3.241,0.566-6.528,2.876-8.855l35.739-35.994l-50.069-8.112c-3.237-0.525-6.033-2.555-7.533-5.473l-23.187-45.111
		l-23.187,45.111c-1.499,2.918-4.296,4.948-7.533,5.473l-50.069,8.112l35.739,35.994c2.31,2.327,3.379,5.613,2.876,8.855
		l-7.757,50.125l45.275-22.867C252.808,304.012,254.404,303.643,256,303.643z"/>
</g>
</svg>